<svg width="153" height="153" viewBox="0 0 153 153" fill="none" xmlns="http://www.w3.org/2000/svg">
<g clip-path="url(#clip0_132_6518)">
<path d="M148.97 0H0V152.06H152.06V0H148.98H148.97ZM148.97 148.97H3.08V3.08H148.97V148.97Z" fill="white"/>
<path d="M57.92 70.41V31.85L43.64 52.42L29.43 31.85V70.4H19.22V12.74H28.82L43.64 34.2L58.46 12.74H68.14V70.41H57.93H57.92Z" fill="white"/>
<path d="M83.9199 70.41V12.74H103.28C119.56 12.74 132.84 25.7 132.84 41.57C132.84 57.44 119.56 70.4 103.28 70.4H83.9199V70.41ZM103.28 59.8C113.65 59.8 122.07 51.62 122.07 41.58C122.07 31.54 113.65 23.36 103.28 23.36H94.6899V59.81H103.28V59.8Z" fill="white"/>
<path d="M68.14 81.62H19.23V91.98H54.25L19.21 128.94L19.23 128.96V139.32H68.14V128.96H33.09L68.14 91.98H68.13H68.14V81.62Z" fill="white"/>
<path d="M132.84 139.32V81.64H124.06V122.94L92.7199 81.62L92.7099 81.64H83.9199V139.32H92.7099V97.98L124.06 139.32H132.84Z" fill="white"/>
</g>
<defs>
<clipPath id="clip0_132_6518">
<rect width="152.06" height="152.06" fill="white"/>
</clipPath>
</defs>
</svg>
