<svg width="121" height="27" viewBox="0 0 121 27" fill="none" xmlns="http://www.w3.org/2000/svg">
<g clip-path="url(#clip0_132_6425)">
<path d="M26.3 0H0V26.85H26.85V0H26.31H26.3ZM26.3 26.3H0.54V0.54H26.3V26.3Z" fill="white"/>
<path d="M10.23 12.43V5.62L7.71002 9.25L5.20002 5.62V12.43H3.40002V2.25H5.09002L7.71002 6.04L10.33 2.25H12.04V12.43H10.24H10.23Z" fill="white"/>
<path d="M14.82 12.43V2.25H18.24C21.11 2.25 23.46 4.54 23.46 7.34C23.46 10.14 21.11 12.43 18.24 12.43H14.82ZM18.23 10.56C20.06 10.56 21.55 9.12 21.55 7.34C21.55 5.56 20.06 4.12 18.23 4.12H16.71V10.55H18.23V10.56Z" fill="white"/>
<path d="M12.03 14.41H3.39001V16.24H9.58001L3.39001 22.76L3.40001 22.77H3.39001V24.6H12.03V22.77H5.84001L12.03 16.24V14.41Z" fill="white"/>
<path d="M23.45 24.6V14.41H21.9V21.7L16.37 14.41H14.82V24.6H16.37V17.3L21.9 24.6H23.45Z" fill="white"/>
<path d="M39.64 10.92C39.64 9.93 39.44 9.06 39.03 8.3C38.62 7.54 38.05 6.94 37.3 6.49C36.55 6.05 35.66 5.83 34.62 5.83H29.37V21.02H32.69V15.77H34.62C35.66 15.77 36.55 15.57 37.3 15.16C38.05 14.76 38.63 14.19 39.03 13.47C39.44 12.75 39.64 11.89 39.64 10.91V10.92ZM36.12 12.04C36 12.36 35.83 12.62 35.58 12.8C35.33 12.98 35.02 13.08 34.62 13.08H32.69V8.52H34.62C35.02 8.52 35.34 8.63 35.58 8.86C35.82 9.09 36 9.38 36.12 9.75C36.23 10.12 36.29 10.52 36.29 10.94C36.29 11.36 36.23 11.72 36.12 12.04Z" fill="white"/>
<path d="M45.71 5.83H43.51L38.78 21.02H42.32L43.07 18.04H47.02L47.77 21.02H51.31L46.56 5.83H45.72H45.71ZM43.73 15.35L45.03 10.13L46.34 15.35H43.73Z" fill="white"/>
<path d="M61.26 14.01C61.66 13.63 61.98 13.14 62.19 12.56C62.41 11.98 62.52 11.27 62.52 10.43C62.52 9.42 62.33 8.58 61.94 7.89C61.55 7.2 60.99 6.69 60.26 6.35C59.53 6.01 58.66 5.83 57.64 5.83H52.6V21.02H55.92V15.56H57.21L59.42 21.02H62.98V20.86L60.34 14.66C60.68 14.47 60.99 14.26 61.27 14L61.26 14.01ZM55.92 8.52H57.64C58 8.52 58.3 8.61 58.53 8.78C58.76 8.96 58.93 9.21 59.05 9.53C59.16 9.86 59.22 10.25 59.22 10.71C59.22 11.17 59.16 11.53 59.04 11.85C58.92 12.17 58.74 12.42 58.49 12.6C58.25 12.78 57.94 12.87 57.56 12.87H55.92V8.52Z" fill="white"/>
<path d="M67.07 5.83H63.43V8.52H67.07V21.02H70.37V8.52H74.11V5.83H70.37H67.07Z" fill="white"/>
<path d="M83.33 15.33L79.01 5.83H75.77V21.02H79V11.57L83.3 21.02H86.56V5.83H83.33V15.33Z" fill="white"/>
<path d="M91.04 5.83H88.81V21.02H91.04H92.13H97.66V18.34H92.13V14.51H96.78V11.92H92.13V8.52H97.66V5.83H92.13H91.04Z" fill="white"/>
<path d="M107.94 14.01C108.34 13.63 108.65 13.14 108.87 12.56C109.09 11.98 109.2 11.27 109.2 10.43C109.2 9.42 109.01 8.58 108.62 7.89C108.23 7.2 107.67 6.69 106.94 6.35C106.21 6.01 105.34 5.83 104.32 5.83H99.28V21.02H102.6V15.56H103.88L106.09 21.02H109.65V20.86L107.01 14.66C107.35 14.47 107.66 14.26 107.94 14V14.01ZM102.6 8.52H104.32C104.68 8.52 104.98 8.61 105.21 8.78C105.44 8.96 105.61 9.21 105.73 9.53C105.84 9.86 105.9 10.25 105.9 10.71C105.9 11.17 105.84 11.53 105.72 11.85C105.6 12.17 105.42 12.42 105.17 12.6C104.93 12.78 104.62 12.87 104.24 12.87H102.6V8.52Z" fill="white"/>
<path d="M120.67 15.26C120.49 14.76 120.22 14.3 119.86 13.9C119.5 13.5 119.06 13.14 118.52 12.82C117.99 12.5 117.38 12.21 116.7 11.94C116.37 11.81 116.07 11.67 115.8 11.52C115.53 11.37 115.29 11.22 115.1 11.06C114.9 10.9 114.75 10.73 114.63 10.54C114.52 10.35 114.46 10.14 114.46 9.89C114.46 9.59 114.52 9.32 114.63 9.06C114.75 8.81 114.92 8.61 115.15 8.46C115.38 8.31 115.66 8.24 116.01 8.24C116.39 8.24 116.69 8.33 116.93 8.51C117.17 8.69 117.34 8.93 117.45 9.25C117.56 9.56 117.61 9.92 117.61 10.32H120.92C120.92 9.38 120.72 8.56 120.31 7.85C119.9 7.14 119.34 6.59 118.62 6.2C117.89 5.81 117.05 5.61 116.09 5.61C115.37 5.61 114.71 5.71 114.11 5.91C113.51 6.11 113 6.39 112.55 6.77C112.11 7.14 111.77 7.59 111.52 8.12C111.28 8.65 111.16 9.23 111.16 9.88C111.16 10.53 111.28 11.13 111.53 11.62C111.78 12.12 112.11 12.55 112.53 12.91C112.95 13.28 113.42 13.6 113.95 13.88C114.47 14.16 115.02 14.41 115.57 14.64C116.02 14.83 116.39 15.02 116.66 15.2C116.93 15.38 117.14 15.56 117.29 15.73C117.43 15.9 117.53 16.09 117.58 16.3C117.63 16.51 117.65 16.74 117.65 17C117.65 17.29 117.61 17.56 117.52 17.81C117.43 18.06 117.28 18.25 117.08 18.39C116.88 18.53 116.59 18.6 116.22 18.6C115.85 18.6 115.56 18.56 115.3 18.47C115.04 18.38 114.83 18.25 114.66 18.06C114.49 17.87 114.37 17.62 114.29 17.3C114.21 16.98 114.18 16.6 114.18 16.15H110.86C110.86 17.03 111 17.79 111.29 18.43C111.58 19.07 111.97 19.59 112.47 20C112.97 20.41 113.54 20.72 114.18 20.92C114.82 21.12 115.48 21.22 116.17 21.22C116.9 21.22 117.56 21.12 118.15 20.93C118.74 20.74 119.24 20.45 119.66 20.08C120.08 19.71 120.4 19.26 120.62 18.74C120.84 18.22 120.95 17.63 120.95 16.97C120.95 16.31 120.86 15.76 120.68 15.25L120.67 15.26Z" fill="white"/>
</g>
<defs>
<clipPath id="clip0_132_6425">
<rect width="120.94" height="26.85" fill="white"/>
</clipPath>
</defs>
</svg>
